<svg width="230" height="48" viewBox="0 0 230 48" fill="none" xmlns="http://www.w3.org/2000/svg">
<g clip-path="url(#clip0_1499_43367)">
<path d="M63.041 12.9609V36.3638C63.041 42.6022 66.7555 46.0957 72.58 47.0582C74.8471 47.4325 82.2411 47.6464 85.1883 46.8978V39.8395C81.3692 40.6594 76.0678 40.3742 73.8007 39.6969C72.0394 39.1622 70.871 37.665 70.871 35.7222V12.9609H63.041Z" fill="#004EA2"/>
<path d="M98.8601 19.1992C90.3674 19.1992 84.5254 25.598 84.5254 33.4941C84.5254 41.3901 89.5129 47.7889 98.8601 47.7889C108.207 47.7889 113.195 41.3901 113.195 33.4941C113.195 25.598 107.353 19.1992 98.8601 19.1992ZM98.8601 40.7128C94.7445 40.7128 92.4775 37.4866 92.4775 33.4941C92.4775 29.5015 94.8317 26.2753 98.8601 26.2753C102.888 26.2753 105.225 29.5193 105.225 33.4941C105.225 37.4688 102.958 40.7128 98.8601 40.7128Z" fill="#00A0D2"/>
<path d="M162.564 19.1992C154.071 19.1992 148.229 25.598 148.229 33.4941C148.229 41.3901 153.217 47.7889 162.564 47.7889C171.911 47.7889 176.899 41.3901 176.899 33.4941C176.899 25.598 171.057 19.1992 162.564 19.1992ZM162.564 40.7128C158.466 40.7128 156.199 37.4866 156.199 33.4941C156.199 29.5015 158.553 26.2753 162.564 26.2753C166.575 26.2753 168.929 29.5193 168.929 33.4941C168.929 37.4688 166.662 40.7128 162.564 40.7128Z" fill="#8FC31F"/>
<path d="M145.003 40.9251C143.626 40.8538 142.231 40.6934 142.231 39.517V26.4876H149.067V19.4828H142.074V12.9414H134.383V19.4828H124.739V12.9414H117.049V19.4828H112.236V26.4876H117.049V41.1568C117.049 46.0762 121.827 47.0387 124.303 47.3061C126.71 47.5734 130.669 47.1635 132.36 46.8248V40.2834C131.157 40.6755 128.506 40.9429 127.652 40.9251C126.274 40.8538 124.879 40.6934 124.879 39.517V26.4876H134.383V41.1568C134.383 46.0762 139.161 47.0387 141.62 47.3061C144.044 47.5734 147.549 47.2348 149.084 46.8783V40.3369C148.055 40.729 145.84 40.9429 144.986 40.9072L145.003 40.9251Z" fill="#004EA2"/>
<path d="M201.295 25.6289L191.861 47.998H194.791L204.243 25.6289H201.295Z" fill="#8FC31F"/>
<path d="M228.064 34.6109C226.791 33.2385 225.152 32.5433 223.164 32.5433C223.059 32.5433 222.92 32.5433 222.78 32.5433C222.641 32.5433 222.501 32.5612 222.344 32.579L223.356 29.1211H229.668V26.1445H221.193L217.967 37.1776H218.996C220.007 35.9299 221.211 35.3239 222.588 35.3239C223.844 35.3239 224.873 35.7695 225.71 36.6429C226.547 37.4984 226.948 38.5857 226.948 39.9225C226.948 41.2593 226.529 42.3287 225.692 43.2556C224.855 44.1468 223.809 44.5924 222.571 44.5924C221.612 44.5924 220.809 44.3606 220.164 43.915C219.502 43.4516 218.856 42.6674 218.211 41.5445L215.874 43.5764C217.444 46.1787 219.589 47.4798 222.309 47.4798C224.506 47.4798 226.338 46.7669 227.785 45.341C229.25 43.915 229.965 42.097 229.965 39.8868C229.965 37.6767 229.32 36.0012 228.047 34.6288L228.064 34.6109Z" fill="#004EA2"/>
<path d="M190.78 35.823C189.559 34.5218 188.129 33.8623 186.455 33.8623C186.351 33.8623 186.211 33.8623 186.019 33.898C185.845 33.898 185.601 33.9514 185.339 33.9693L191.076 26.1445H187.536L180.805 35.3595C179.462 37.2132 178.8 38.9778 178.8 40.6354C178.8 42.4891 179.48 44.0755 180.857 45.4301C182.252 46.7669 183.892 47.4442 185.74 47.4442C187.589 47.4442 189.228 46.7669 190.571 45.3944C191.914 44.022 192.594 42.3644 192.594 40.4572C192.594 38.657 192.001 37.1063 190.797 35.8051L190.78 35.823ZM188.426 43.4338C187.676 44.2002 186.769 44.5924 185.705 44.5924C184.642 44.5924 183.7 44.2181 182.95 43.4338C182.2 42.6674 181.816 41.7405 181.816 40.6354C181.816 39.5303 182.2 38.6035 182.95 37.8371C183.7 37.0706 184.624 36.6785 185.705 36.6785C186.787 36.6785 187.693 37.0706 188.443 37.8371C189.193 38.6035 189.577 39.5482 189.577 40.6533C189.577 41.7583 189.193 42.6317 188.443 43.416L188.426 43.4338Z" fill="#004EA2"/>
<path d="M212.317 26.1641H209.858L200.371 42.3482V44.1485H209.23V47.1251H212.317V44.1485H214.497V41.2788H212.317V26.1641ZM209.23 41.2788H204.504L209.23 33.0619V41.2788Z" fill="#004EA2"/>
<path d="M27.1174 1.4609L25.1119 0.623177C24.8504 0.516233 24.4318 0.516233 24.1702 0.623177L22.1648 1.4609L20.1593 2.28081L19.6885 2.47687L21.0836 12.797H28.3381L29.5588 2.47687L29.088 2.28081L27.0825 1.44308L27.1174 1.4609Z" fill="url(#paint0_linear_1499_43367)"/>
<path d="M17.2295 1.4609L15.2241 0.623177C14.9625 0.516233 14.544 0.516233 14.2824 0.623177L12.2769 1.4609L10.2715 2.29863C10.0099 2.40558 9.90524 2.70858 10.0273 2.95812L14.544 12.8148H21.1009L19.7058 2.4947L19.235 2.29863L17.2295 1.47873V1.4609Z" fill="url(#paint1_linear_1499_43367)"/>
<path d="M38.9931 2.30034L36.9877 1.48044L34.9996 0.642708C34.7381 0.535764 34.3195 0.535764 34.0579 0.642708L32.0525 1.48044L30.047 2.30034L29.5762 2.4964L28.3555 12.8165H34.9124L39.2547 2.97765C39.3768 2.71029 39.2547 2.42511 38.9931 2.30034Z" fill="url(#paint2_linear_1499_43367)"/>
<path d="M21.101 13.1328H14.3871L1.67418 25.9661C-0.784683 28.408 -0.313836 31.7054 1.67418 33.8799L12.3118 46.6597C12.4862 46.8736 12.7478 47.0519 13.0268 47.1945L21.101 13.5428V13.1328Z" fill="url(#paint3_linear_1499_43367)"/>
<path d="M47.6252 33.8995C49.6132 31.7071 50.084 28.4097 47.6252 25.9856L34.9123 13.1523H28.46L36.29 47.214C36.569 47.0714 36.8306 46.8932 37.005 46.6793L47.6426 33.8995H47.6252Z" fill="url(#paint4_linear_1499_43367)"/>
<path d="M36.2725 47.214L28.4425 13.1523H21.2054L13.0266 47.214C13.3405 47.3744 13.6893 47.4635 13.9857 47.4635H35.3308C35.6273 47.4635 35.976 47.3566 36.2899 47.214H36.2725Z" fill="url(#paint5_linear_1499_43367)"/>
<path d="M42.6902 39.8125H6.60938L12.3119 46.6569C12.4862 46.8708 12.7478 47.049 13.0268 47.1916C13.3407 47.352 13.6895 47.4412 13.986 47.4412H35.331C35.6275 47.4412 35.9763 47.3342 36.2902 47.1916C36.5692 47.049 36.8308 46.8708 37.0052 46.6569L42.7076 39.8125H42.6902Z" fill="url(#paint6_linear_1499_43367)"/>
<path d="M38.243 11.3906H14.7879C13.9334 11.3906 13.2358 12.1036 13.2358 12.977C13.2358 13.8503 13.9334 14.5633 14.7879 14.5633H38.243" fill="white"/>
<path d="M38.2432 15.2944H14.788C13.5324 15.2944 12.521 14.2606 12.521 12.9773C12.521 11.6939 13.5324 10.6602 14.788 10.6602H38.2432V12.1217H14.788C14.3172 12.1217 13.951 12.496 13.951 12.9773C13.951 13.4585 14.3172 13.8328 14.788 13.8328H38.2432V15.2944Z" fill="#005083"/>
<path d="M14.858 39.6055H6.43506L6.80127 40.0511H14.7359L14.858 39.6055Z" fill="url(#paint7_linear_1499_43367)"/>
<path d="M34.6335 40.0511H42.4984L42.8646 39.6055H34.5115L34.6335 40.0511Z" fill="url(#paint8_linear_1499_43367)"/>
<path d="M14.8581 39.6055L14.7534 40.0511H34.6336L34.5115 39.6055H14.8581Z" fill="url(#paint9_linear_1499_43367)"/>
<path d="M53.9904 6.34534C53.9904 9.83884 51.2176 12.6907 47.7822 12.6907C44.3467 12.6907 41.574 9.85666 41.574 6.34534C41.574 2.83401 44.3467 0 47.7822 0C51.2176 0 53.9904 2.83401 53.9904 6.34534Z" fill="#005083"/>
<path d="M52.6127 6.33007C52.6127 9.07496 50.4503 11.2851 47.7647 11.2851C45.0792 11.2851 42.9167 9.07496 42.9167 6.33007C42.9167 3.58517 45.0966 1.375 47.7647 1.375C50.4329 1.375 52.6127 3.58517 52.6127 6.33007Z" fill="#009944"/>
<path d="M46.5091 5.13658C45.3058 6.65162 45.0442 6.95463 44.1199 7.09722C43.5096 7.18634 43.2131 6.65162 43.2131 5.88519C43.2131 5.11876 43.4922 4.13844 44.0502 3.33636C44.6954 2.39169 45.6894 1.87479 46.5788 1.75003C47.4682 1.62526 48.2704 1.87479 48.4971 2.48081C48.8284 3.35418 47.3112 4.13844 46.5091 5.13658Z" fill="#009944"/>
<path d="M44.0678 3.35768C44.6956 2.43084 45.6896 1.91394 46.579 1.78917C47.4684 1.6644 48.2531 1.91394 48.4798 2.50213C48.8112 3.37551 47.3114 4.14194 46.5267 5.12226C45.3408 6.61947 45.0793 6.92248 44.1724 7.04725C43.5621 7.13637 43.2656 6.60165 43.2656 5.85304C43.2656 5.10443 43.5446 4.12411 44.0852 3.33986L44.0678 3.35768Z" fill="#009A45"/>
<path d="M44.0852 3.35158C44.713 2.44255 45.6896 1.92566 46.5616 1.80089C47.4335 1.67612 48.2182 1.92566 48.4275 2.51385C48.7414 3.3694 47.2765 4.13583 46.4918 5.09833C45.3234 6.57772 45.0444 6.8629 44.155 7.00549C43.5621 7.09461 43.2656 6.57772 43.2656 5.82911C43.2656 5.0805 43.5446 4.11801 44.0678 3.35158H44.0852Z" fill="#009B46"/>
<path d="M44.085 3.35337C44.6954 2.44435 45.672 1.94527 46.5265 1.82051C47.381 1.69574 48.1483 1.94527 48.375 2.51564C48.6889 3.35337 47.2415 4.10198 46.4741 5.0823C45.3232 6.52604 45.0442 6.82905 44.1722 6.97164C43.5793 7.06076 43.3003 6.54386 43.3003 5.81308C43.3003 5.0823 43.5793 4.13762 44.1025 3.37119L44.085 3.35337Z" fill="#009C47"/>
<path d="M44.1025 3.35638C44.7128 2.46518 45.6545 1.96611 46.509 1.84135C47.3635 1.71658 48.1134 1.94829 48.3401 2.53648C48.654 3.35638 47.224 4.10499 46.4567 5.06749C45.3232 6.49341 45.0442 6.79641 44.1722 6.92118C43.5793 7.0103 43.3003 6.49341 43.3003 5.78045C43.3003 5.06749 43.5619 4.12282 44.085 3.35638H44.1025Z" fill="#009C48"/>
<path d="M44.1198 3.35038C44.7128 2.477 45.6545 1.97793 46.509 1.85316C47.3635 1.72839 48.0959 1.9601 48.3052 2.53047C48.619 3.33255 47.2065 4.08116 46.4566 5.02583C45.3231 6.43393 45.0615 6.73693 44.207 6.8617C43.6316 6.95082 43.3525 6.45175 43.3525 5.73879C43.3525 5.02583 43.6141 4.09898 44.1373 3.35038H44.1198Z" fill="#009D49"/>
<path d="M44.1373 3.35208C44.7302 2.47871 45.6545 1.99746 46.4916 1.87269C47.3286 1.74792 48.061 1.97964 48.2703 2.55C48.5668 3.35208 47.1891 4.08287 46.4392 5.00971C45.3232 6.39998 45.0441 6.70299 44.2071 6.82776C43.6316 6.91688 43.37 6.41781 43.3526 5.70485C43.3351 4.99189 43.6142 4.08287 44.1199 3.35208H44.1373Z" fill="#009E4A"/>
<path d="M44.1549 3.35389C44.7478 2.49834 45.6546 2.01709 46.4743 1.89232C47.2939 1.76755 48.0263 1.99926 48.2356 2.55181C48.532 3.33606 47.1718 4.06685 46.4394 4.97587C45.3407 6.33049 45.0617 6.6335 44.2421 6.77609C43.6841 6.86521 43.405 6.36614 43.405 5.67101C43.405 4.97587 43.6666 4.06685 44.1549 3.35389Z" fill="#009F4C"/>
<path d="M44.1722 3.35492C44.7477 2.49937 45.6545 2.03594 46.4567 1.929C47.2589 1.82205 47.9739 2.03594 48.1831 2.58849C48.4796 3.35492 47.1368 4.0857 46.4044 4.9769C45.3232 6.3137 45.0442 6.61671 44.242 6.74147C43.6839 6.83059 43.4224 6.34935 43.4224 5.65421C43.4224 4.95908 43.6839 4.0857 44.1722 3.35492Z" fill="#00A04D"/>
<path d="M44.1897 3.35671C44.7651 2.51898 45.6545 2.05555 46.4393 1.94861C47.224 1.84167 47.939 2.05555 48.1483 2.59027C48.4273 3.33888 47.1194 4.05184 46.4044 4.94304C45.3406 6.26202 45.0441 6.56502 44.2594 6.68979C43.7188 6.77891 43.4572 6.29766 43.4398 5.62035C43.4223 4.94304 43.6839 4.06967 44.1722 3.35671H44.1897Z" fill="#00A14E"/>
<path d="M44.2072 3.35451C44.7652 2.5346 45.6546 2.07118 46.4393 1.96424C47.2241 1.85729 47.9216 2.07118 48.1309 2.6059C48.4099 3.35451 47.1195 4.04964 46.4045 4.94084C45.3581 6.24199 45.0617 6.545 44.2944 6.66977C43.7538 6.75889 43.4922 6.27764 43.4922 5.61815C43.4922 4.95867 43.7363 4.08529 44.2246 3.39016L44.2072 3.35451Z" fill="#00A250"/>
<path d="M44.2245 3.35239C44.7826 2.53249 45.6371 2.08689 46.4218 1.97994C47.2065 1.873 47.8866 2.08689 48.0785 2.60378C48.3575 3.33457 47.0845 4.0297 46.3869 4.90308C45.358 6.16858 45.0616 6.48941 44.2943 6.59636C43.7537 6.68548 43.5095 6.20423 43.5095 5.56257C43.5095 4.9209 43.7537 4.04753 44.2245 3.35239Z" fill="#00A351"/>
<path d="M44.2421 3.3541C44.7827 2.55202 45.6372 2.10642 46.4045 1.99948C47.1718 1.89253 47.8519 2.10642 48.0437 2.62331C48.3053 3.33627 47.0672 4.03141 46.3696 4.88696C45.3582 6.13464 45.0617 6.45547 44.3118 6.56242C43.7887 6.63371 43.5271 6.18811 43.5271 5.52862C43.5271 4.86914 43.7712 4.03141 44.2421 3.3541Z" fill="#00A452"/>
<path d="M44.2596 3.35589C44.8002 2.57163 45.6372 2.12603 46.3871 2.01909C47.137 1.91215 47.8171 2.12603 48.0089 2.62511C48.2705 3.32024 47.0498 4.01538 46.3697 4.8531C45.3756 6.08296 45.0617 6.38597 44.3293 6.51074C43.8062 6.58203 43.562 6.13643 43.562 5.49477C43.562 4.8531 43.8062 4.0332 44.2596 3.35589Z" fill="#00A553"/>
<path d="M44.2768 3.35369C44.8 2.56944 45.637 2.14166 46.3869 2.03472C47.1368 1.92777 47.782 2.14166 47.9738 2.64073C48.2354 3.31804 47.0321 3.99535 46.352 4.83308C45.3754 6.04511 45.0615 6.34812 44.3465 6.45506C43.8408 6.52636 43.5967 6.08076 43.5967 5.45692C43.5967 4.83308 43.8234 4.01318 44.2768 3.35369Z" fill="#00A755"/>
<path d="M44.2768 3.35548C44.8 2.58905 45.6196 2.16128 46.352 2.05433C47.0844 1.94739 47.7297 2.16128 47.9215 2.64252C48.1831 3.31984 46.9972 3.97932 46.3346 4.79923C45.3754 5.97561 45.0615 6.29644 44.3465 6.40339C43.8408 6.47468 43.5967 6.04691 43.5967 5.42307C43.5967 4.79923 43.8234 3.99715 44.2768 3.33766V3.35548Z" fill="#00A856"/>
<path d="M44.2943 3.3546C44.8174 2.606 45.6196 2.17822 46.3346 2.07128C47.0496 1.96433 47.6948 2.1604 47.8867 2.65947C48.1308 3.31896 46.9798 3.97844 46.3172 4.79835C45.358 5.95691 45.0441 6.27774 44.364 6.38468C43.8757 6.45598 43.6316 6.0282 43.6316 5.42219C43.6316 4.81617 43.8583 4.01409 44.2943 3.37243V3.3546Z" fill="#00A958"/>
<path d="M44.3117 3.35641C44.8175 2.6078 45.6196 2.19785 46.3172 2.09091C47.0147 1.98396 47.66 2.18003 47.8344 2.66128C48.0785 3.30294 46.945 3.96243 46.2998 4.76451C45.3581 5.90524 45.0442 6.22607 44.3815 6.31519C43.8932 6.38649 43.6665 5.95871 43.6491 5.3527C43.6316 4.74668 43.8758 3.96243 44.3117 3.33859V3.35641Z" fill="#00AA59"/>
<path d="M44.3291 3.35421C44.8348 2.62343 45.6021 2.21348 46.3171 2.10653C47.0321 1.99959 47.6424 2.19565 47.8168 2.6769C48.061 3.30074 46.9449 3.96023 46.2997 4.74448C45.3754 5.86739 45.0615 6.18823 44.3988 6.27735C43.9105 6.34864 43.6838 5.93869 43.6838 5.33267C43.6838 4.72666 43.9105 3.97805 44.3291 3.35421Z" fill="#00AB5A"/>
<path d="M44.3467 3.35211C44.835 2.62133 45.6023 2.2292 46.2998 2.12226C46.9974 2.01531 47.5903 2.21138 47.7821 2.6748C48.0088 3.28082 46.9451 3.9403 46.2998 4.70674C45.393 5.794 45.0791 6.11483 44.4339 6.22177C43.963 6.29307 43.7363 5.88312 43.7363 5.29493C43.7363 4.70674 43.9456 3.95813 44.3816 3.33429L44.3467 3.35211Z" fill="#09AC5C"/>
<path d="M44.3642 3.35312C44.8525 2.64016 45.6023 2.24804 46.2825 2.15892C46.9626 2.0698 47.5555 2.24804 47.7299 2.71146C47.9566 3.31748 46.9103 3.94132 46.265 4.70775C45.3756 5.77719 45.0443 6.09802 44.4165 6.20496C43.9457 6.27626 43.7364 5.86631 43.719 5.29594C43.7015 4.72557 43.9282 3.97696 44.3468 3.37095L44.3642 3.35312Z" fill="#1FAE5D"/>
<path d="M44.3814 3.35491C44.8522 2.65978 45.6021 2.26765 46.2647 2.17853C46.9274 2.08941 47.5203 2.26765 47.6947 2.71325C47.9214 3.30144 46.8925 3.92528 46.2647 4.67389C45.3928 5.7255 45.0615 6.04634 44.4511 6.13546C43.9977 6.20675 43.771 5.81462 43.771 5.24426C43.771 4.67389 43.9803 3.9431 44.3814 3.35491Z" fill="#2CAF5F"/>
<path d="M44.3989 3.35271C44.8698 2.65758 45.6022 2.28327 46.2474 2.19415C46.8927 2.10504 47.4856 2.28327 47.66 2.72887C47.8692 3.29924 46.8752 3.92308 46.2474 4.67169C45.3929 5.70548 45.0616 6.02631 44.4512 6.11543C43.9978 6.18673 43.7886 5.7946 43.7886 5.24206C43.7886 4.68951 43.9978 3.95873 44.3989 3.38836V3.35271Z" fill="#34B060"/>
<path d="M44.4164 3.3545C44.8698 2.67719 45.6022 2.30289 46.2475 2.21377C46.8927 2.12465 47.4682 2.30289 47.6251 2.73067C47.8344 3.28321 46.8578 3.90705 46.2475 4.63783C45.4104 5.63597 45.0616 5.97463 44.4862 6.06375C44.0502 6.13505 43.8235 5.74292 43.8235 5.19038C43.8235 4.63783 44.0328 3.9427 44.4164 3.3545Z" fill="#3CB162"/>
<path d="M44.4337 3.35621C44.8871 2.69672 45.6021 2.32242 46.2299 2.2333C46.8577 2.14418 47.4332 2.32242 47.5902 2.7502C47.7994 3.30274 46.8403 3.90876 46.2299 4.62171C45.4103 5.60203 45.0615 5.92287 44.4861 6.01199C44.0501 6.08328 43.8408 5.69115 43.8408 5.15644C43.8408 4.62172 44.0326 3.92658 44.4337 3.35621Z" fill="#43B363"/>
<path d="M44.4511 3.3541C44.9045 2.69461 45.5846 2.33813 46.2124 2.24901C46.8402 2.15989 47.3808 2.33813 47.5552 2.74808C47.747 3.2828 46.8228 3.88882 46.2299 4.58395C45.4277 5.54645 45.0789 5.86728 44.5209 5.9564C44.0849 6.0277 43.8931 5.65339 43.8931 5.11867C43.8931 4.58395 44.0849 3.90664 44.4685 3.3541H44.4511Z" fill="#4AB465"/>
<path d="M44.4687 3.3519C44.9046 2.71023 45.5847 2.35376 46.1951 2.26464C46.8054 2.17552 47.346 2.35376 47.503 2.76371C47.6948 3.2806 46.788 3.86879 46.1951 4.56393C45.4103 5.5086 45.0441 5.82943 44.5035 5.91855C44.085 5.98985 43.8757 5.61554 43.8757 5.09865C43.8757 4.58175 44.0676 3.90444 44.4338 3.3519H44.4687Z" fill="#50B567"/>
<path d="M44.4688 3.35369C44.9048 2.72985 45.5675 2.37337 46.1778 2.28425C46.7882 2.19513 47.3113 2.37337 47.4683 2.7655C47.6601 3.26457 46.7707 3.85276 46.1953 4.53008C45.4105 5.4391 45.0617 5.77775 44.5386 5.84905C44.12 5.92035 43.9282 5.54604 43.9282 5.04697C43.9282 4.5479 44.12 3.87059 44.4863 3.33587L44.4688 3.35369Z" fill="#55B768"/>
<path d="M44.4862 3.35283C44.9047 2.72899 45.5674 2.39034 46.1603 2.30122C46.7532 2.2121 47.2764 2.37251 47.4333 2.78246C47.6252 3.26371 46.7532 3.8519 46.1778 4.51139C45.4104 5.40259 45.0617 5.74124 44.5559 5.81254C44.1549 5.86601 43.963 5.52736 43.9456 5.02829C43.9282 4.52921 44.1374 3.86973 44.4862 3.35283Z" fill="#5BB86A"/>
<path d="M44.5035 3.35464C44.922 2.74862 45.5673 2.40997 46.1427 2.32085C46.7182 2.23173 47.2414 2.39214 47.3809 2.78427C47.5553 3.26552 46.7182 3.83589 46.1602 4.49538C45.4103 5.36875 45.0615 5.70741 44.5558 5.7787C44.1547 5.83217 43.9629 5.49352 43.9629 4.99445C43.9629 4.49538 44.1373 3.87154 44.5035 3.35464Z" fill="#60B96C"/>
<path d="M44.521 3.35244C44.9221 2.76425 45.5673 2.42559 46.1253 2.33647C46.6834 2.24735 47.2065 2.40777 47.3461 2.7999C47.5204 3.26332 46.7008 3.83369 46.1428 4.47535C45.4103 5.3309 45.0441 5.65174 44.5733 5.72303C44.1896 5.7765 43.9978 5.43785 43.9978 4.9566C43.9978 4.47535 44.1722 3.85151 44.521 3.33462V3.35244Z" fill="#65BA6D"/>
<path d="M44.5387 3.35425C44.9398 2.76606 45.5675 2.44523 46.1256 2.35611C46.6836 2.26699 47.1719 2.42741 47.3114 2.80171C47.4858 3.24731 46.6836 3.79985 46.143 4.44152C45.428 5.26142 45.0618 5.60008 44.591 5.67137C44.2073 5.72484 44.0329 5.40401 44.0155 4.92276C43.9981 4.44152 44.1899 3.8355 44.5387 3.33643V3.35425Z" fill="#69BC6F"/>
<path d="M44.5558 3.35524C44.9394 2.78487 45.5498 2.46404 46.1078 2.39274C46.6659 2.32145 47.1367 2.46404 47.2762 2.83834C47.4332 3.26612 46.6659 3.81866 46.1253 4.4425C45.4277 5.24458 45.0615 5.58324 44.6081 5.65453C44.2244 5.708 44.05 5.38717 44.05 4.92375C44.05 4.46032 44.2244 3.85431 44.5558 3.37306V3.35524Z" fill="#6DBD71"/>
<path d="M44.5732 3.35703C44.9569 2.78666 45.5498 2.48365 46.0904 2.41236C46.631 2.34106 47.1019 2.48365 47.2414 2.84013C47.3983 3.26791 46.6485 3.80263 46.1253 4.40864C45.4452 5.1929 45.0615 5.53155 44.6256 5.60285C44.2593 5.65632 44.085 5.33549 44.085 4.88989C44.085 4.44429 44.2593 3.83827 44.5732 3.37485V3.35703Z" fill="#72BE73"/>
<path d="M44.5907 3.35092C44.9743 2.79838 45.5498 2.49537 46.073 2.42407C46.5961 2.35278 47.067 2.49537 47.1891 2.85185C47.346 3.2618 46.6136 3.79652 46.0904 4.38471C45.4277 5.15114 45.0441 5.4898 44.6256 5.54327C44.2593 5.59674 44.085 5.27591 44.085 4.83031C44.085 4.38471 44.2593 3.81435 44.5732 3.3331L44.5907 3.35092Z" fill="#76C075"/>
<path d="M44.6082 3.35271C44.9744 2.81799 45.5499 2.51498 46.0556 2.44369C46.5613 2.37239 47.0321 2.51498 47.1542 2.85364C47.2937 3.24577 46.5962 3.78049 46.0905 4.36868C45.4452 5.09946 45.0616 5.43812 44.643 5.50941C44.2943 5.56289 44.1199 5.25988 44.1199 4.81428C44.1199 4.36868 44.2768 3.81614 44.5907 3.35271H44.6082Z" fill="#7AC177"/>
<path d="M44.6258 3.35442C44.992 2.8197 45.55 2.53452 46.0557 2.46322C46.5615 2.39192 46.9974 2.53452 47.137 2.87317C47.2765 3.24748 46.5964 3.7822 46.0906 4.35256C45.4628 5.06552 45.0792 5.40418 44.6781 5.47547C44.3293 5.52895 44.1724 5.22594 44.1724 4.79816C44.1724 4.37039 44.3293 3.81784 44.6432 3.37224L44.6258 3.35442Z" fill="#7EC379"/>
<path d="M44.6431 3.35621C44.9919 2.83932 45.5499 2.55413 46.0382 2.48284C46.5265 2.41154 46.9625 2.55413 47.0845 2.87496C47.224 3.23144 46.5614 3.74834 46.0731 4.31871C45.4627 5.01384 45.0616 5.3525 44.6954 5.40597C44.3641 5.45944 44.1897 5.15643 44.1897 4.74648C44.1897 4.33653 44.3466 3.78399 44.6431 3.35621Z" fill="#82C47B"/>
<path d="M44.6604 3.35792C45.0092 2.85885 45.5498 2.57366 46.0207 2.50237C46.4915 2.43107 46.9275 2.57366 47.0495 2.8945C47.1891 3.25098 46.5438 3.75005 46.0555 4.30259C45.4626 4.9799 45.0615 5.31856 44.6953 5.37203C44.364 5.4255 44.207 5.14032 44.207 4.73037C44.207 4.32041 44.364 3.78569 44.6604 3.35792Z" fill="#86C57C"/>
<path d="M44.6605 3.3519C44.9918 2.85283 45.515 2.58547 45.9858 2.51417C46.4567 2.44288 46.8752 2.58547 46.9973 2.88848C47.1193 3.22713 46.509 3.7262 46.0381 4.26092C45.4627 4.92041 45.0616 5.25907 44.7128 5.31254C44.3815 5.36601 44.2419 5.08083 44.2419 4.6887C44.2419 4.29657 44.3989 3.77968 44.6779 3.3519H44.6605Z" fill="#8AC77E"/>
<path d="M44.6779 3.35497C45.0092 2.87373 45.515 2.60637 45.9858 2.53507C46.4567 2.46377 46.8578 2.58854 46.9624 2.90937C47.0845 3.2302 46.4915 3.72928 46.0207 4.24617C45.4452 4.87001 45.0441 5.22649 44.7128 5.26214C44.3989 5.31561 44.2419 5.03043 44.2419 4.6383C44.2419 4.24617 44.3815 3.7471 44.6605 3.33715L44.6779 3.35497Z" fill="#8EC881"/>
<path d="M44.6953 3.35679C45.0092 2.89336 45.5149 2.62601 45.9683 2.55471C46.4217 2.48341 46.8228 2.60818 46.9274 2.91119C47.0495 3.2142 46.474 3.71327 46.0206 4.21234C45.4626 4.81836 45.0615 5.15701 44.7476 5.21048C44.4337 5.26396 44.2942 4.9966 44.2942 4.60447C44.2942 4.21234 44.4337 3.73109 44.7127 3.33896L44.6953 3.35679Z" fill="#91CA83"/>
<path d="M44.7128 3.35068C45.0267 2.88726 45.515 2.63772 45.951 2.56643C46.3869 2.49513 46.7706 2.6199 46.8927 2.92291C46.9973 3.20809 46.4567 3.70716 46.0033 4.20623C45.4627 4.79443 45.0616 5.13308 44.7477 5.18655C44.4338 5.24003 44.3117 4.97267 44.2943 4.59836C44.2768 4.22406 44.4338 3.74281 44.6954 3.35068H44.7128Z" fill="#95CB85"/>
<path d="M44.7302 3.3525C45.0441 2.9069 45.5149 2.65737 45.9335 2.58607C46.352 2.51477 46.7357 2.63954 46.8403 2.92473C46.9449 3.20991 46.4218 3.67333 45.9858 4.17241C45.4626 4.74277 45.0615 5.08143 44.7651 5.1349C44.4686 5.18837 44.3291 4.92101 44.3291 4.56453C44.3291 4.20805 44.4686 3.72681 44.7302 3.3525Z" fill="#99CD87"/>
<path d="M44.7477 3.35344C45.0441 2.90785 45.515 2.67613 45.9335 2.62266C46.352 2.56919 46.7182 2.67613 46.8229 2.96132C46.9275 3.22868 46.4218 3.6921 45.9858 4.17335C45.4801 4.70807 45.0616 5.06455 44.7825 5.1002C44.5035 5.13584 44.364 4.88631 44.364 4.54765C44.364 4.209 44.5035 3.74557 44.7477 3.37127V3.35344Z" fill="#9CCE89"/>
<path d="M44.7651 3.35523C45.0616 2.92746 45.515 2.69575 45.9161 2.64227C46.3172 2.5888 46.6834 2.69575 46.788 2.96311C46.8752 3.21264 46.4218 3.67607 45.9859 4.13949C45.4976 4.65638 45.079 5.01286 44.8175 5.04851C44.5384 5.08416 44.3989 4.85245 44.3989 4.51379C44.3989 4.17514 44.521 3.72954 44.7651 3.35523Z" fill="#A0CF8B"/>
<path d="M44.7826 3.35694C45.0616 2.94699 45.4976 2.71528 45.8987 2.66181C46.2998 2.60833 46.6485 2.71528 46.7357 2.98264C46.8229 3.21435 46.387 3.67777 45.951 4.12337C45.4801 4.62244 45.0616 4.97892 44.8 5.01457C44.521 5.05022 44.3989 4.81851 44.3989 4.47985C44.3989 4.1412 44.521 3.71342 44.7651 3.35694H44.7826Z" fill="#A3D18D"/>
<path d="M44.7999 3.35483C45.079 2.94487 45.4975 2.73099 45.8812 2.67751C46.2648 2.62404 46.5961 2.73099 46.7008 2.98052C46.788 3.21223 46.3694 3.65783 45.9509 4.08561C45.4975 4.56686 45.0615 4.90551 44.8348 4.94116C44.5732 4.97681 44.4512 4.7451 44.4512 4.42426C44.4512 4.10343 44.5732 3.67566 44.7999 3.337V3.35483Z" fill="#A7D28F"/>
<path d="M44.8173 3.35263C45.0789 2.9605 45.4974 2.74661 45.8636 2.69314C46.2298 2.63967 46.5612 2.74661 46.6658 2.99615C46.753 3.21003 46.3519 3.65563 45.9334 4.08341C45.4974 4.52901 45.0614 4.88549 44.8522 4.92114C44.5906 4.95679 44.4685 4.7429 44.4685 4.42207C44.4685 4.10123 44.5906 3.69128 44.8173 3.37045V3.35263Z" fill="#AAD491"/>
<path d="M44.835 3.35442C45.0966 2.98012 45.4977 2.76623 45.8639 2.71276C46.2301 2.65928 46.544 2.76623 46.6312 2.99794C46.7009 3.194 46.3347 3.6396 45.9336 4.04956C45.5325 4.45951 45.0791 4.83381 44.8699 4.86946C44.6257 4.90511 44.5037 4.69122 44.5037 4.38821C44.5037 4.0852 44.6257 3.67525 44.835 3.35442Z" fill="#ADD593"/>
<path d="M44.8525 3.35613C45.0966 2.98182 45.4977 2.78576 45.8465 2.73229C46.1953 2.67882 46.5092 2.78576 46.5963 3.01747C46.6661 3.19571 46.3173 3.62349 45.9162 4.03344C45.5151 4.44339 45.0792 4.79987 44.8873 4.81769C44.6432 4.85334 44.5386 4.63945 44.5386 4.35427C44.5386 4.06909 44.6432 3.67696 44.8699 3.35613H44.8525Z" fill="#B1D696"/>
<path d="M44.8873 4.76431C44.6606 4.79996 44.5386 4.6039 44.5386 4.30089C44.5386 3.99788 44.6432 3.6414 44.8525 3.33839C45.0966 2.98191 45.4803 2.78585 45.8116 2.73238C46.1429 2.6789 46.4568 2.78585 46.544 2.99974C46.6138 3.16015 46.2824 3.58793 45.8988 3.98006C45.5151 4.37218 45.0617 4.72866 44.8873 4.74649V4.76431Z" fill="#B4D898"/>
<path d="M48.0264 15.473C48.0264 20.0181 44.4166 23.6898 39.9871 23.6898C35.5577 23.6898 31.9304 20.0003 31.9304 15.473C31.9304 10.9457 35.5402 7.23828 39.9871 7.23828C44.434 7.23828 48.0264 10.9278 48.0264 15.473Z" fill="#005083"/>
<path d="M46.5965 15.4723C46.5965 19.2154 43.6319 22.2276 39.9697 22.2276C36.3076 22.2276 33.343 19.1976 33.343 15.4723C33.343 11.7471 36.3076 8.69922 39.9697 8.69922C43.6319 8.69922 46.5965 11.7293 46.5965 15.4723Z" fill="#E60012"/>
<path d="M38.2606 13.8307C36.6214 15.8982 36.2551 16.3082 34.9995 16.5043C34.1625 16.629 33.7614 15.8982 33.744 14.8645C33.7265 13.8307 34.1276 12.476 34.8775 11.3888C35.7494 10.1054 37.1096 9.39249 38.3478 9.21425C39.5859 9.03601 40.6497 9.37467 40.9636 10.1946C41.417 11.4066 39.3418 12.4582 38.2606 13.8307Z" fill="#E60012"/>
<path d="M34.8952 11.3922C35.7672 10.1267 37.11 9.43155 38.3132 9.25331C39.5165 9.07507 40.5977 9.41373 40.8942 10.2336C41.3476 11.4278 39.3072 12.4795 38.226 13.8163C36.6042 15.866 36.238 16.276 34.9999 16.4542C34.1628 16.579 33.7617 15.8482 33.7617 14.8322C33.7617 13.8163 34.1454 12.4795 34.8778 11.3922H34.8952Z" fill="#E60813"/>
<path d="M34.9299 11.3862C35.7844 10.1385 37.1098 9.44336 38.3131 9.26512C39.5163 9.08688 40.5627 9.42554 40.8766 10.2276C41.3125 11.3862 39.3071 12.4378 38.2433 13.7746C36.6389 15.7887 36.2727 16.1987 35.052 16.3769C34.2324 16.5017 33.8313 15.7887 33.8313 14.7727C33.8313 13.7568 34.1975 12.4556 34.9299 11.3862Z" fill="#E61114"/>
<path d="M34.9473 11.3897C35.7843 10.1598 37.1097 9.48252 38.2781 9.30428C39.4465 9.12604 40.4928 9.4647 40.8067 10.249C41.2427 11.3897 39.2547 12.4235 38.2083 13.7425C36.6214 15.7209 36.2552 16.1309 35.0519 16.3269C34.2497 16.4517 33.8486 15.7387 33.8486 14.7406C33.8486 13.7425 34.2148 12.4413 34.9473 11.3897Z" fill="#E61815"/>
<path d="M34.9646 11.3914C35.8017 10.1794 37.0922 9.50205 38.2606 9.32381C39.429 9.14557 40.4579 9.48423 40.7543 10.2685C41.1903 11.3914 39.2371 12.4252 38.1908 13.7263C36.6388 15.6692 36.2551 16.0969 35.0867 16.2752C34.2845 16.3999 33.9009 15.7048 33.9009 14.7067C33.9009 13.7085 34.2671 12.443 34.9821 11.4092L34.9646 11.3914Z" fill="#E71E17"/>
<path d="M34.9821 11.3886C35.8017 10.1766 37.0922 9.51709 38.2432 9.35668C39.3941 9.19626 40.4056 9.51709 40.702 10.2835C41.1206 11.3886 39.2023 12.4046 38.1734 13.6879C36.6388 15.6129 36.2551 16.0228 35.1042 16.2011C34.3194 16.3259 33.9358 15.6307 33.9358 14.6504C33.9358 13.6701 34.302 12.4046 34.9996 11.3886H34.9821Z" fill="#E72418"/>
<path d="M35.017 11.3889C35.8366 10.1947 37.0922 9.55302 38.2257 9.37478C39.3593 9.19655 40.3707 9.5352 40.6497 10.2838C41.0683 11.3711 39.1849 12.3692 38.156 13.6525C36.6388 15.5419 36.2552 15.9518 35.1216 16.1301C34.3369 16.2548 33.9707 15.5597 33.9532 14.5972C33.9358 13.6347 34.302 12.387 34.9996 11.3711L35.017 11.3889Z" fill="#E7281A"/>
<path d="M35.0344 11.3912C35.8365 10.2148 37.0921 9.57316 38.2082 9.41274C39.3243 9.25232 40.3183 9.55533 40.6148 10.3218C41.0159 11.3912 39.1674 12.3893 38.1559 13.637C36.6562 15.4907 36.2725 15.9185 35.1564 16.0789C34.3891 16.2037 34.0229 15.5264 34.0055 14.5817C33.988 13.637 34.3543 12.4072 35.0344 11.409V11.3912Z" fill="#E72D1B"/>
<path d="M35.0519 11.3891C35.8367 10.2305 37.0748 9.58887 38.1735 9.42846C39.2721 9.26804 40.2487 9.57105 40.5452 10.3197C40.9462 11.3713 39.1152 12.3516 38.1212 13.5993C36.6563 15.4351 36.2552 15.8451 35.1566 16.0233C34.3893 16.1481 34.0405 15.4708 34.0231 14.5439C34.0056 13.6171 34.3718 12.3872 35.0519 11.4069V11.3891Z" fill="#E7311D"/>
<path d="M35.0693 11.3887C35.8541 10.248 37.0573 9.62412 38.156 9.46371C39.2546 9.30329 40.2137 9.6063 40.4928 10.3371C40.8764 11.3709 39.0977 12.3512 38.1037 13.5632C36.6562 15.3634 36.2551 15.7912 35.1739 15.9516C34.4241 16.0586 34.0579 15.4169 34.0579 14.4901C34.0579 13.5632 34.4066 12.369 35.0693 11.3887Z" fill="#E8341E"/>
<path d="M35.1042 11.3904C35.8715 10.2675 37.0748 9.64366 38.1386 9.48324C39.2023 9.32282 40.1615 9.62583 40.4405 10.3566C40.8241 11.3726 39.0628 12.3351 38.0863 13.5471C36.6563 15.3117 36.2552 15.7395 35.1914 15.8999C34.459 16.0068 34.0928 15.3652 34.0928 14.4561C34.0928 13.5471 34.4241 12.3707 35.0868 11.4082L35.1042 11.3904Z" fill="#E83820"/>
<path d="M35.1217 11.3876C35.8716 10.2825 37.0574 9.65871 38.1212 9.51612C39.1849 9.37352 40.1266 9.65871 40.3882 10.3717C40.7719 11.3698 39.0454 12.3145 38.0688 13.5087C36.6563 15.2554 36.2552 15.6654 35.2089 15.8258C34.4765 15.9328 34.1277 15.3089 34.1277 14.3999C34.1277 13.4909 34.459 12.3323 35.1043 11.3876H35.1217Z" fill="#E83B21"/>
<path d="M35.1391 11.3879C35.8889 10.3006 37.0573 9.69463 38.1037 9.53421C39.15 9.3738 40.0742 9.6768 40.3358 10.3719C40.702 11.3523 39.0105 12.2969 38.0513 13.4733C36.6737 15.1844 36.2551 15.6122 35.2437 15.7548C34.5287 15.8617 34.1799 15.2379 34.1799 14.3467C34.1799 13.4555 34.5113 12.3148 35.1565 11.3701L35.1391 11.3879Z" fill="#E83E23"/>
<path d="M35.1565 11.3889C35.889 10.3017 37.0399 9.71348 38.0688 9.57089C39.0977 9.4283 40.0045 9.71348 40.2835 10.4086C40.6498 11.3711 38.9756 12.298 38.0339 13.4565C36.6737 15.132 36.2552 15.5597 35.2612 15.7202C34.5462 15.8271 34.2148 15.2033 34.2148 14.3299C34.2148 13.4565 34.5462 12.3158 35.174 11.4068L35.1565 11.3889Z" fill="#E84125"/>
<path d="M35.1914 11.3868C35.9238 10.3174 37.0573 9.72919 38.0688 9.5866C39.0802 9.444 39.987 9.72919 40.2486 10.4065C40.5974 11.3512 38.9756 12.278 38.0339 13.4188C36.6911 15.0586 36.2726 15.5042 35.296 15.6468C34.5985 15.7537 34.2671 15.1477 34.2497 14.2743C34.2322 13.4009 34.5636 12.2958 35.1914 11.3868Z" fill="#E94426"/>
<path d="M35.209 11.3903C35.9239 10.3387 37.04 9.76834 38.034 9.62574C39.028 9.48315 39.9174 9.76833 40.179 10.4278C40.5278 11.3547 38.9234 12.2637 37.9992 13.3866C36.6738 15.0086 36.2553 15.4364 35.2961 15.579C34.616 15.6859 34.2847 15.0799 34.2673 14.2422C34.2498 13.4044 34.5812 12.2993 35.1915 11.4081L35.209 11.3903Z" fill="#E94728"/>
<path d="M35.2262 11.3894C35.9237 10.3556 37.0224 9.78526 38.0164 9.64267C39.0104 9.50007 39.8823 9.76744 40.1265 10.4447C40.4753 11.3359 38.9058 12.245 37.9815 13.3679C36.6736 14.9542 36.2551 15.382 35.3134 15.5246C34.6333 15.6315 34.3194 15.0433 34.3019 14.2056C34.2845 13.3679 34.6158 12.2806 35.2087 11.4072L35.2262 11.3894Z" fill="#E9492A"/>
<path d="M35.2437 11.3899C35.9413 10.3739 37.0225 9.82134 37.9991 9.66092C38.9756 9.50051 39.8301 9.78569 40.0743 10.4452C40.4056 11.3186 38.871 12.2276 37.9642 13.3148C36.6911 14.8655 36.2552 15.3111 35.3309 15.4537C34.6683 15.5607 34.3369 14.9725 34.3369 14.1526C34.3369 13.3327 34.6334 12.2632 35.2437 11.3899Z" fill="#E94C2C"/>
<path d="M35.2785 11.3908C35.9586 10.3927 37.0224 9.84014 37.9815 9.69754C38.9407 9.55495 39.7777 9.82231 40.0219 10.464C40.3532 11.3195 38.836 12.2107 37.9641 13.2802C36.7085 14.813 36.2725 15.2408 35.3657 15.3834C34.7031 15.4903 34.3892 14.9021 34.3892 14.1001C34.3892 13.298 34.6856 12.2464 35.2785 11.3908Z" fill="#EA4F2D"/>
<path d="M35.2959 11.3886C35.976 10.4083 37.0223 9.85576 37.964 9.71317C38.9057 9.57058 39.7428 9.83794 39.9869 10.4796C40.3008 11.3173 38.836 12.1907 37.964 13.2601C36.7259 14.7574 36.2899 15.203 35.4005 15.3277C34.7553 15.4347 34.4414 14.8643 34.4414 14.0622C34.4414 13.2601 34.7379 12.2264 35.3133 11.3886H35.2959Z" fill="#EA512F"/>
<path d="M35.3135 11.3687C35.9762 10.4062 37.005 9.87148 37.9293 9.72889C38.8536 9.5863 39.6732 9.85366 39.9173 10.4775C40.2312 11.2974 38.7838 12.1708 37.9293 13.2046C36.7086 14.6661 36.2726 15.1117 35.4007 15.2365C34.7729 15.3256 34.459 14.7731 34.459 13.9888C34.459 13.2046 34.7554 12.1886 35.3135 11.3509V11.3687Z" fill="#EA5431"/>
<path d="M35.3309 11.3705C35.9761 10.408 37.005 9.89111 37.9118 9.74852C38.8186 9.60593 39.6208 9.87329 39.8649 10.4793C40.1614 11.2814 38.7663 12.1369 37.9118 13.1707C36.726 14.5966 36.2725 15.0422 35.4355 15.167C34.8077 15.2561 34.5112 14.7214 34.5112 13.9372C34.5112 13.1529 34.7903 12.1548 35.3483 11.3527L35.3309 11.3705Z" fill="#EA5633"/>
<path d="M35.3659 11.3715C36.0111 10.4268 37.0051 9.90995 37.8945 9.78518C38.7839 9.66041 39.5861 9.90995 39.8128 10.516C40.1092 11.3002 38.7316 12.1558 37.8945 13.1539C36.7261 14.562 36.2727 15.0076 35.4531 15.1324C34.8427 15.2215 34.5462 14.6868 34.5288 13.9203C34.5114 13.1539 34.8078 12.1736 35.3659 11.3715Z" fill="#EA5934"/>
<path d="M35.3833 11.3679C36.0111 10.4411 36.9877 9.94199 37.8771 9.7994C38.7665 9.65681 39.5338 9.92417 39.7605 10.5124C40.0569 11.2788 38.6967 12.1165 37.8771 13.1147C36.7261 14.4871 36.2727 14.9327 35.4705 15.0575C34.8602 15.1466 34.5812 14.6297 34.5637 13.8811C34.5463 13.1325 34.8427 12.17 35.3833 11.3857V11.3679Z" fill="#EB5B36"/>
<path d="M35.4006 11.3703C36.0284 10.4613 36.9875 9.96221 37.8594 9.83744C38.7314 9.71267 39.4987 9.94438 39.708 10.5326C39.987 11.2812 38.6791 12.1011 37.8594 13.0814C36.7259 14.4182 36.2725 14.8638 35.4878 14.9886C34.8948 15.0777 34.5984 14.5608 34.5984 13.83C34.5984 13.0992 34.8774 12.1367 35.4006 11.3703Z" fill="#EB5D38"/>
<path d="M35.418 11.3721C36.0284 10.4809 36.9701 9.98183 37.8246 9.85707C38.6791 9.7323 39.429 9.96401 39.6557 10.5344C39.9347 11.2652 38.6442 12.0851 37.842 13.0476C36.7434 14.3665 36.2725 14.8121 35.5052 14.9191C34.9123 15.0082 34.6333 14.4913 34.6333 13.7783C34.6333 13.0654 34.8949 12.1207 35.418 11.3543V11.3721Z" fill="#EB603A"/>
<path d="M35.4529 11.3677C36.0458 10.4943 36.9875 10.0131 37.8245 9.88832C38.6616 9.76355 39.394 9.99526 39.6207 10.5656C39.8823 11.2786 38.6441 12.0807 37.842 13.0253C36.7608 14.3087 36.2725 14.7543 35.54 14.879C34.9646 14.9682 34.6855 14.4691 34.6855 13.7561C34.6855 13.0432 34.9471 12.1341 35.4529 11.3855V11.3677Z" fill="#EB623C"/>
<path d="M35.4704 11.3695C36.0633 10.514 36.9702 10.0327 37.7898 9.90795C38.6094 9.78318 39.3418 10.0149 39.5511 10.5674C39.8127 11.2626 38.592 12.0646 37.8072 12.9915C36.7435 14.2392 36.2552 14.7026 35.5402 14.8095C34.9821 14.8987 34.7031 14.3996 34.7031 13.7045C34.7031 13.0093 34.9647 12.1003 35.4704 11.3695Z" fill="#EC653E"/>
<path d="M35.4877 11.3706C36.0631 10.5329 36.97 10.0516 37.7721 9.9447C38.5743 9.83776 39.2893 10.0516 39.4986 10.5864C39.7602 11.2637 38.5569 12.0479 37.7896 12.957C36.7433 14.1868 36.255 14.6324 35.5574 14.7394C34.9994 14.8285 34.7378 14.3472 34.7378 13.6521C34.7378 12.957 34.9994 12.0836 35.4877 11.3528V11.3706Z" fill="#EC6740"/>
<path d="M35.5051 11.3747C36.0632 10.5548 36.9525 10.0914 37.7373 9.96664C38.522 9.84187 39.237 10.0736 39.4289 10.6083C39.673 11.25 38.522 12.0342 37.7547 12.9432C36.7433 14.1375 36.2376 14.583 35.5749 14.69C35.0343 14.7791 34.7727 14.2979 34.7727 13.6206C34.7727 12.9432 35.0168 12.0699 35.5051 11.3747Z" fill="#EC6942"/>
<path d="M35.5399 11.368C36.0979 10.5481 36.9524 10.1025 37.7372 9.99557C38.5219 9.88863 39.202 10.1025 39.3939 10.6194C39.638 11.2432 38.5045 12.0275 37.7546 12.9009C36.7606 14.0594 36.2549 14.5229 35.6096 14.612C35.069 14.7011 34.8249 14.2199 34.8075 13.5604C34.79 12.9009 35.0516 12.0453 35.5225 11.3502L35.5399 11.368Z" fill="#EC6C44"/>
<path d="M35.5577 11.3722C36.0983 10.5702 36.9528 10.1424 37.7202 10.0176C38.4875 9.89285 39.1501 10.1246 39.3594 10.6236C39.5861 11.2297 38.5049 11.9961 37.755 12.8695C36.7785 13.9924 36.2727 14.4558 35.6449 14.5627C35.1218 14.6519 34.8776 14.1884 34.8602 13.5468C34.8428 12.9051 35.1043 12.0674 35.5752 11.3722H35.5577Z" fill="#ED6E46"/>
<path d="M35.575 11.3732C36.1156 10.589 36.9352 10.1612 37.6851 10.0542C38.435 9.9473 39.0976 10.1612 39.2895 10.6603C39.5162 11.2485 38.4524 12.0149 37.72 12.8526C36.7608 13.9577 36.2551 14.4211 35.6447 14.5102C35.139 14.5815 34.8774 14.1359 34.8774 13.5121C34.8774 12.8883 35.1041 12.0505 35.575 11.391V11.3732Z" fill="#ED7048"/>
<path d="M35.5925 11.3685C36.1156 10.6021 36.9353 10.1743 37.6677 10.0674C38.4001 9.96043 39.0453 10.1565 39.2372 10.6556C39.4464 11.2259 38.435 11.9745 37.7026 12.8123C36.7783 13.8817 36.2551 14.3451 35.6622 14.4342C35.1565 14.5055 34.9124 14.0778 34.9124 13.4539C34.9124 12.8301 35.1391 12.028 35.5925 11.3685Z" fill="#ED724A"/>
<path d="M35.6271 11.372C36.1329 10.6234 36.935 10.2135 37.65 10.1065C38.365 9.99959 39.0103 10.1957 39.1846 10.6769C39.3939 11.2294 38.3999 11.9602 37.6849 12.7801C36.7781 13.8139 36.2549 14.2773 35.6794 14.3665C35.1912 14.4378 34.947 14.01 34.947 13.404C34.947 12.798 35.1737 12.0137 35.6097 11.372H35.6271Z" fill="#ED754D"/>
<path d="M35.6446 11.3737C36.1503 10.643 36.9351 10.233 37.6326 10.1261C38.3302 10.0191 38.958 10.2152 39.1324 10.6964C39.3416 11.2312 38.3651 11.9619 37.6675 12.764C36.7781 13.78 36.255 14.2434 35.6969 14.3147C35.2086 14.386 34.9819 13.976 34.9819 13.37C34.9819 12.764 35.2086 11.9976 35.6272 11.3737H35.6446Z" fill="#EE774F"/>
<path d="M35.6622 11.3709C36.1505 10.658 36.9178 10.248 37.6154 10.1589C38.3129 10.0698 38.9058 10.248 39.0977 10.7115C39.2895 11.2284 38.3652 11.9413 37.6677 12.7256C36.8132 13.7059 36.2726 14.1693 35.732 14.2584C35.2611 14.3297 35.0344 13.9198 35.0344 13.3316C35.0344 12.7434 35.2437 11.9948 35.6797 11.3709H35.6622Z" fill="#EE7951"/>
<path d="M35.6969 11.3713C36.1852 10.6761 36.935 10.284 37.5977 10.177C38.2604 10.0701 38.8707 10.2662 39.0451 10.7118C39.237 11.2108 38.3301 11.9238 37.65 12.6724C36.813 13.6171 36.2724 14.0983 35.7492 14.1696C35.2958 14.2409 35.0691 13.831 35.0691 13.2606C35.0691 12.6902 35.2784 11.9416 35.6969 11.3534V11.3713Z" fill="#EE7B53"/>
<path d="M35.7146 11.3722C36.1854 10.6771 36.9178 10.3028 37.5805 10.2137C38.2432 10.1246 38.8187 10.3028 38.9931 10.7484C39.1674 11.2297 38.3129 11.9248 37.6328 12.6734C36.8132 13.6002 36.2726 14.0637 35.7843 14.135C35.3309 14.2063 35.1216 13.8141 35.1042 13.2438C35.0868 12.6734 35.3135 11.9604 35.7146 11.3722Z" fill="#EE7E55"/>
<path d="M35.7319 11.3701C36.1853 10.6928 36.9003 10.3185 37.5455 10.2294C38.1908 10.1403 38.7663 10.3185 38.9232 10.7463C39.0976 11.2097 38.2605 11.887 37.5979 12.6178C36.7957 13.509 36.2551 13.9724 35.7842 14.0437C35.3482 14.115 35.139 13.7229 35.1215 13.1882C35.1041 12.6535 35.3308 11.9405 35.7145 11.3523L35.7319 11.3701Z" fill="#EF8058"/>
<path d="M35.7494 11.3697C36.2028 10.7102 36.9004 10.3538 37.5282 10.2646C38.156 10.1755 38.714 10.3538 38.871 10.7637C39.0279 11.1737 38.2257 11.8866 37.5805 12.5996C36.8132 13.4551 36.2551 13.9364 35.8017 14.0077C35.3658 14.079 35.1565 13.7047 35.1565 13.1699C35.1565 12.6352 35.3483 11.9401 35.732 11.3875L35.7494 11.3697Z" fill="#EF825A"/>
<path d="M35.7841 11.3714C36.2201 10.7298 36.9002 10.3733 37.5105 10.2842C38.1209 10.195 38.6615 10.3733 38.8184 10.7832C38.9754 11.1932 38.2081 11.8705 37.5628 12.5656C36.813 13.4034 36.2549 13.8668 35.819 13.9381C35.4004 14.0094 35.1912 13.6351 35.1912 13.1182C35.1912 12.6013 35.383 11.924 35.7666 11.3714H35.7841Z" fill="#EF845C"/>
<path d="M35.8016 11.37C36.2376 10.7461 36.9002 10.3897 37.4932 10.3184C38.0861 10.2471 38.6267 10.3897 38.7836 10.7996C38.9406 11.2096 38.1907 11.8691 37.5803 12.5464C36.8479 13.3484 36.2899 13.8119 35.8713 13.8832C35.4528 13.9545 35.261 13.5802 35.261 13.0811C35.261 12.582 35.4528 11.9225 35.819 11.3878L35.8016 11.37Z" fill="#F0865F"/>
<path d="M35.8191 11.3703C36.2376 10.7642 36.8828 10.4256 37.4757 10.3365C38.0687 10.2474 38.5744 10.4078 38.7313 10.7999C38.8883 11.192 38.1733 11.8337 37.5629 12.4932C36.848 13.2596 36.2899 13.7409 35.8888 13.7943C35.4877 13.8656 35.2959 13.5091 35.2959 13.0101C35.2959 12.511 35.4877 11.8693 35.8365 11.3524L35.8191 11.3703Z" fill="#F08961"/>
<path d="M35.8364 11.372C36.2375 10.7838 36.8827 10.4451 37.4408 10.356C37.9988 10.2669 38.522 10.4273 38.6615 10.8194C38.801 11.1759 38.1209 11.8176 37.528 12.4771C36.8478 13.2078 36.2724 13.6891 35.8887 13.7426C35.5051 13.796 35.3132 13.4574 35.3132 12.9761C35.3132 12.4949 35.4876 11.871 35.8364 11.3541V11.372Z" fill="#F08B64"/>
<path d="M35.8714 11.3716C36.2725 10.8012 36.8829 10.4804 37.4409 10.3913C37.999 10.3021 38.4873 10.4626 38.6268 10.8369C38.7488 11.1755 38.121 11.8172 37.5281 12.441C36.8655 13.154 36.29 13.6352 35.9238 13.6887C35.5401 13.7422 35.3657 13.4213 35.3657 12.9401C35.3657 12.4588 35.5401 11.8528 35.8889 11.3716H35.8714Z" fill="#F08D66"/>
<path d="M35.8889 11.3695C36.2726 10.7991 36.8655 10.4961 37.4061 10.407C37.9467 10.3179 38.4175 10.4783 38.557 10.8348C38.6791 11.1556 38.0687 11.7794 37.4933 12.4033C36.848 13.0806 36.2726 13.5618 35.9412 13.6153C35.575 13.6688 35.4006 13.348 35.3832 12.8845C35.3657 12.4211 35.5576 11.8329 35.8889 11.3517V11.3695Z" fill="#F18F68"/>
<path d="M35.9063 11.3705C36.2725 10.8179 36.8654 10.5149 37.3885 10.4436C37.9117 10.3723 38.3826 10.5149 38.5046 10.8714C38.6267 11.1744 38.0338 11.7982 37.4757 12.3864C36.8654 13.0281 36.2725 13.5093 35.9586 13.5628C35.5924 13.6163 35.418 13.3133 35.418 12.8677C35.418 12.4221 35.5749 11.8517 35.9063 11.3705Z" fill="#F1916B"/>
<path d="M35.9239 11.3708C36.2901 10.8361 36.8481 10.5509 37.3713 10.4618C37.8944 10.3727 38.3304 10.5331 38.4699 10.8717C38.5746 11.1569 38.034 11.7629 37.4759 12.3511C36.883 12.975 36.2901 13.4562 35.9936 13.4919C35.6448 13.5453 35.4705 13.2423 35.4705 12.8146C35.4705 12.3868 35.6274 11.8164 35.9413 11.3708H35.9239Z" fill="#F1946D"/>
<path d="M35.9588 11.3718C36.3076 10.8549 36.8656 10.5698 37.3539 10.4985C37.8422 10.4272 38.2956 10.5698 38.4177 10.8906C38.5223 11.1579 37.9991 11.7461 37.4585 12.3165C36.9179 12.8869 36.2901 13.3859 36.0111 13.4394C35.6798 13.4929 35.5054 13.1899 35.5054 12.7799C35.5054 12.37 35.6623 11.8174 35.9588 11.3718Z" fill="#F19670"/>
<path d="M35.9763 11.3735C36.325 10.8745 36.8482 10.5893 37.3365 10.518C37.8248 10.4467 38.2433 10.5893 38.3654 10.9101C38.4526 11.1597 37.9817 11.7478 37.4411 12.3004C36.8831 12.8708 36.2902 13.352 36.0286 13.3877C35.6972 13.4411 35.5403 13.1559 35.5403 12.746C35.5403 12.336 35.6972 11.8191 35.9937 11.3914L35.9763 11.3735Z" fill="#F29872"/>
<path d="M36.0285 13.3134C35.7146 13.3669 35.5576 13.0817 35.5576 12.6896C35.5576 12.2974 35.6971 11.7805 35.9936 11.3706C36.3249 10.8894 36.8481 10.622 37.3015 10.5507C37.7549 10.4794 38.1734 10.6042 38.2955 10.925C38.3827 11.1567 37.9293 11.7271 37.4061 12.2618C36.883 12.7965 36.2726 13.2778 36.0285 13.3134Z" fill="#F29A75"/>
<path d="M48.532 5.6172C48.2006 5.26072 47.7995 5.08248 47.3287 5.08248C47.2938 5.08248 47.2589 5.08248 47.2066 5.08248C47.1543 5.08248 47.0846 5.08248 47.0148 5.10031L48.6017 2.92578H47.6252L45.7592 5.47461C45.393 5.99151 45.2012 6.47276 45.2012 6.93618C45.2012 7.45307 45.393 7.89867 45.7767 8.27298C46.1603 8.64728 46.6137 8.82552 47.1369 8.82552C47.66 8.82552 48.096 8.62946 48.4797 8.25515C48.8459 7.88085 49.0377 7.41743 49.0377 6.88271C49.0377 6.38363 48.8633 5.95586 48.532 5.59938V5.6172ZM47.8693 7.72043C47.66 7.93432 47.4159 8.04127 47.1194 8.04127C46.823 8.04127 46.5614 7.93432 46.3521 7.72043C46.1429 7.50655 46.0382 7.25701 46.0382 6.954C46.0382 6.651 46.1429 6.38364 46.3521 6.16975C46.5614 5.95586 46.8055 5.84892 47.1194 5.84892C47.4333 5.84892 47.66 5.95586 47.8867 6.16975C48.096 6.38364 48.2006 6.63317 48.2006 6.954C48.2006 7.27484 48.096 7.50655 47.8867 7.72043H47.8693Z" fill="white"/>
<path d="M43.283 14.2788C42.8994 13.8689 42.4111 13.6728 41.8356 13.6728C41.8007 13.6728 41.7659 13.6728 41.7135 13.6728C41.6787 13.6728 41.6263 13.6728 41.5915 13.6728L41.8879 12.639H43.7713V11.7656H41.2601L40.301 15.0274H40.5975C40.8939 14.6531 41.2601 14.4749 41.6612 14.4749C42.0274 14.4749 42.3413 14.5996 42.5855 14.867C42.8296 15.1165 42.9517 15.4374 42.9517 15.8473C42.9517 16.2573 42.8296 16.5603 42.568 16.8276C42.3239 17.095 42.01 17.2198 41.6438 17.2198C41.3648 17.2198 41.1206 17.1485 40.9288 17.0237C40.737 16.8811 40.5451 16.6494 40.3533 16.3286L39.6558 16.9346C40.1266 17.701 40.7544 18.0931 41.574 18.0931C42.2193 18.0931 42.7599 17.8793 43.1958 17.4515C43.6144 17.0237 43.8411 16.489 43.8411 15.8295C43.8411 15.17 43.6492 14.6709 43.2656 14.2788H43.283Z" fill="white"/>
<path d="M38.6094 11.7639H37.877L35.0693 16.5586V17.0933H37.7026V17.9845H38.6268V17.0933H39.2721V16.2377H38.6268V11.7461L38.6094 11.7639ZM37.6852 16.2556H36.29L37.6852 13.8137V16.2556Z" fill="white"/>
</g>
<defs>
<linearGradient id="paint0_linear_1499_43367" x1="19.8803" y1="6.13079" x2="29.2568" y2="7.73665" gradientUnits="userSpaceOnUse">
<stop stop-color="#FCCE00"/>
<stop offset="0.23" stop-color="#F6A900"/>
<stop offset="0.43" stop-color="#F18E00"/>
<stop offset="0.61" stop-color="#EE7D00"/>
<stop offset="0.75" stop-color="#EE7800"/>
<stop offset="1" stop-color="#A84200"/>
</linearGradient>
<linearGradient id="paint1_linear_1499_43367" x1="10.1668" y1="8.43008" x2="20.3717" y2="6.20755" gradientUnits="userSpaceOnUse">
<stop stop-color="#AACE36"/>
<stop offset="0.8" stop-color="#00A33A"/>
<stop offset="1" stop-color="#306C30"/>
</linearGradient>
<linearGradient id="paint2_linear_1499_43367" x1="29.0879" y1="5.84731" x2="36.4254" y2="8.21175" gradientUnits="userSpaceOnUse">
<stop stop-color="#00A0E9"/>
<stop offset="0.03" stop-color="#0098E2"/>
<stop offset="0.19" stop-color="#0076C4"/>
<stop offset="0.31" stop-color="#0062B2"/>
<stop offset="0.4" stop-color="#005BAC"/>
</linearGradient>
<linearGradient id="paint3_linear_1499_43367" x1="1.60443" y1="26.8395" x2="17.2233" y2="30.0701" gradientUnits="userSpaceOnUse">
<stop stop-color="#AACE36"/>
<stop offset="0.8" stop-color="#00A33A"/>
<stop offset="1" stop-color="#306C30"/>
</linearGradient>
<linearGradient id="paint4_linear_1499_43367" x1="32.7325" y1="30.0673" x2="46.1828" y2="26.4736" gradientUnits="userSpaceOnUse">
<stop stop-color="#00A0E9"/>
<stop offset="0.08" stop-color="#008CD7"/>
<stop offset="0.2" stop-color="#0071BF"/>
<stop offset="0.31" stop-color="#0060B1"/>
<stop offset="0.4" stop-color="#005BAC"/>
</linearGradient>
<linearGradient id="paint5_linear_1499_43367" x1="15.6773" y1="31.8854" x2="32.6385" y2="29.8537" gradientUnits="userSpaceOnUse">
<stop stop-color="#FCCE00"/>
<stop offset="0.23" stop-color="#F6A900"/>
<stop offset="0.43" stop-color="#F18E00"/>
<stop offset="0.61" stop-color="#EE7D00"/>
<stop offset="0.75" stop-color="#EE7800"/>
<stop offset="1" stop-color="#A84200"/>
</linearGradient>
<linearGradient id="paint6_linear_1499_43367" x1="24.6411" y1="47.2273" x2="24.6411" y2="39.866" gradientUnits="userSpaceOnUse">
<stop stop-color="white" stop-opacity="0.67"/>
<stop offset="1" stop-color="white" stop-opacity="0"/>
</linearGradient>
<linearGradient id="paint7_linear_1499_43367" x1="-0.557892" y1="37.3597" x2="15.0609" y2="40.5903" gradientUnits="userSpaceOnUse">
<stop stop-color="#AACE36"/>
<stop offset="0.8" stop-color="#00A33A"/>
<stop offset="1" stop-color="#306C30"/>
</linearGradient>
<linearGradient id="paint8_linear_1499_43367" x1="35.5578" y1="40.6571" x2="49.0081" y2="37.0635" gradientUnits="userSpaceOnUse">
<stop stop-color="#00A0E9"/>
<stop offset="0.08" stop-color="#008CD7"/>
<stop offset="0.2" stop-color="#0071BF"/>
<stop offset="0.31" stop-color="#0060B1"/>
<stop offset="0.4" stop-color="#005BAC"/>
</linearGradient>
<linearGradient id="paint9_linear_1499_43367" x1="16.7589" y1="40.8353" x2="33.7203" y2="38.7866" gradientUnits="userSpaceOnUse">
<stop stop-color="#FCCE00"/>
<stop offset="0.23" stop-color="#F6A900"/>
<stop offset="0.43" stop-color="#F18E00"/>
<stop offset="0.61" stop-color="#EE7D00"/>
<stop offset="0.75" stop-color="#EE7800"/>
<stop offset="1" stop-color="#A84200"/>
</linearGradient>
<clipPath id="clip0_1499_43367">
<rect width="230" height="48" fill="white"/>
</clipPath>
</defs>
</svg>
